<?xml version="1.0" standalone="no"?>
<!DOCTYPE svg PUBLIC "-//W3C//DTD SVG 20010904//EN"
 "http://www.w3.org/TR/2001/REC-SVG-20010904/DTD/svg10.dtd">
<svg version="1.0" xmlns="http://www.w3.org/2000/svg"
 width="925.000000pt" height="925.000000pt" viewBox="0 0 925.000000 925.000000"
 preserveAspectRatio="xMidYMid meet">

<g transform="translate(0.000000,925.000000) scale(0.100000,-0.100000)"
fill="#000000" stroke="none">
<path d="M0 4625 l0 -4625 4625 0 4625 0 0 4625 0 4625 -4625 0 -4625 0 0
-4625z m4679 2306 c19 -12 28 -130 12 -160 -11 -19 -20 -21 -101 -21 -89 0
-90 0 -90 -25 0 -19 6 -26 28 -31 233 -50 434 -208 526 -412 16 -35 24 -42 47
-42 39 0 49 -24 49 -123 0 -84 0 -85 27 -92 23 -5 35 2 89 56 51 51 66 61 86
56 31 -8 148 -129 148 -153 0 -10 -27 -46 -61 -80 -52 -53 -59 -64 -54 -87 7
-27 8 -27 94 -27 122 0 122 0 119 -135 l-3 -110 -98 -3 c-93 -3 -98 -4 -109
-28 -11 -23 -7 -29 50 -87 34 -34 62 -71 62 -82 0 -23 -137 -165 -159 -165 -9
0 -43 28 -77 61 -53 53 -66 61 -88 55 -26 -6 -26 -8 -26 -95 0 -119 -2 -121
-129 -121 -69 0 -102 4 -109 13 -6 7 -12 53 -14 102 -3 88 -4 90 -31 99 -25 9
-32 5 -90 -52 -34 -34 -69 -62 -77 -62 -8 0 -35 20 -60 45 -45 44 -46 45 -85
33 -22 -7 -96 -12 -165 -12 -137 -1 -218 18 -330 74 -242 122 -400 382 -400
657 1 170 46 296 175 479 7 10 1 23 -26 50 -32 32 -39 34 -56 23 -27 -16 -53
-5 -53 23 0 31 104 130 133 126 29 -4 33 -35 8 -62 l-21 -22 39 -38 39 -38 54
40 c83 62 168 102 286 132 35 9 42 15 42 35 0 25 -1 25 -90 25 -105 0 -110 4
-110 99 0 95 -13 91 308 91 152 0 284 -4 291 -9z m-2031 -2351 l32 -12 0 -844
0 -844 -130 0 -130 0 -2 417 -3 418 -95 32 c-98 33 -307 79 -316 70 -11 -10
-54 -195 -78 -333 -37 -214 -49 -360 -43 -528 5 -147 16 -208 51 -290 9 -22
14 -42 11 -45 -13 -12 -139 19 -176 43 -99 66 -134 161 -133 356 2 203 66 525
149 746 l24 64 -27 0 c-51 -1 -179 -28 -213 -45 -46 -23 -79 -55 -79 -75 0 -9
14 -26 30 -38 64 -48 24 -132 -62 -132 -149 0 -209 158 -101 266 72 73 213
114 391 114 l97 1 55 116 c60 127 162 291 230 366 74 83 176 154 265 184 47
15 202 11 253 -7z m4082 -751 c0 -685 2 -716 46 -764 46 -50 126 -20 168 63
52 103 56 141 56 536 l0 366 115 0 115 0 0 -435 c0 -347 3 -442 14 -468 51
-119 191 -112 262 15 l29 53 3 418 3 417 115 0 115 0 -3 -737 -3 -738 -24 -59
c-45 -111 -126 -175 -236 -183 -83 -7 -138 10 -191 59 -74 69 -92 174 -45 266
28 56 119 136 199 176 l72 36 0 66 0 66 -37 -32 c-20 -18 -62 -44 -91 -58 -47
-21 -64 -24 -126 -19 -40 3 -90 13 -112 22 -46 19 -118 86 -135 127 -6 15 -15
28 -19 28 -5 0 -20 -20 -33 -43 -35 -58 -97 -113 -144 -126 -129 -36 -237 17
-280 139 -10 28 -20 50 -23 50 -3 0 -14 -16 -24 -35 -34 -63 -117 -132 -181
-151 -144 -41 -325 28 -390 150 -11 20 -23 36 -26 36 -4 0 -21 -24 -37 -54
-37 -65 -102 -123 -156 -137 -99 -27 -216 12 -269 88 -60 87 -62 100 -63 439
-2 341 -9 393 -61 434 -89 70 -208 13 -264 -126 -24 -58 -24 -65 -27 -446 l-3
-388 -114 0 -115 0 0 124 0 123 -82 -82 c-129 -129 -257 -183 -404 -172 -99 7
-179 44 -242 111 -27 29 -57 67 -67 85 l-17 34 -25 -44 c-73 -124 -144 -178
-246 -186 -121 -10 -206 35 -253 136 -31 65 -39 72 -49 41 -12 -38 -85 -119
-130 -146 -31 -18 -65 -28 -108 -31 -155 -13 -256 70 -286 232 -7 36 -11 211
-11 452 l0 393 -40 0 -40 0 0 40 0 40 40 0 40 0 0 155 c0 85 3 155 8 155 4 0
52 7 107 15 55 8 103 15 108 15 4 0 7 -76 7 -170 l0 -170 90 0 90 0 0 -40 0
-40 -90 0 -90 0 0 -387 c0 -214 5 -406 10 -428 5 -24 21 -51 41 -69 27 -24 38
-27 72 -23 56 8 106 52 147 132 l35 68 3 353 3 354 -36 0 c-34 0 -35 1 -35 40
0 39 1 40 35 40 l35 0 0 154 0 154 83 11 c45 7 97 14 115 18 l32 5 0 -171 0
-171 90 0 90 0 0 -40 0 -40 -90 0 -90 0 0 -386 c0 -424 4 -458 53 -500 25 -21
38 -25 70 -21 52 7 105 51 141 117 29 53 29 55 28 204 -2 117 2 172 17 245 39
184 140 340 259 398 51 25 68 28 157 28 153 0 228 -41 276 -150 33 -75 32
-200 -3 -276 -62 -135 -205 -228 -399 -261 l-71 -11 6 -41 c20 -130 82 -215
174 -242 145 -42 316 25 402 157 l40 62 0 379 0 378 115 0 115 0 0 -82 1 -83
27 35 c77 100 149 140 257 140 135 0 234 -70 276 -196 23 -67 23 -79 21 -382
-3 -291 -2 -315 17 -356 33 -76 88 -87 151 -30 24 22 47 56 59 88 17 46 18 60
8 135 -12 92 1 247 29 356 40 154 143 299 250 351 111 54 255 40 327 -32 l37
-37 0 256 0 256 43 6 c23 3 67 9 97 14 30 5 63 9 73 10 16 1 17 -36 17 -650z"/>
<path d="M4157 6864 c-4 -4 -7 -16 -7 -26 0 -17 14 -18 241 -18 l240 0 -3 23
-3 22 -231 3 c-127 1 -233 -1 -237 -4z"/>
<path d="M4350 6730 c0 -17 7 -20 40 -20 33 0 40 3 40 20 0 17 -7 20 -40 20
-33 0 -40 -3 -40 -20z"/>
<path d="M4212 6611 c-115 -33 -190 -79 -283 -171 -145 -144 -207 -303 -196
-504 17 -327 269 -589 596 -622 97 -9 201 3 208 24 3 10 22 34 41 55 40 41 38
43 -31 22 -295 -89 -622 94 -713 400 -26 87 -24 230 4 320 47 152 156 282 294
349 170 84 347 85 514 4 79 -38 182 -130 229 -203 32 -50 33 -50 79 -47 l46 4
-26 47 c-86 159 -242 280 -419 326 -83 21 -261 19 -343 -4z"/>
<path d="M4305 6470 c-208 -37 -366 -193 -413 -406 -32 -151 20 -325 135 -445
102 -107 265 -169 408 -155 71 7 178 41 195 62 11 12 0 14 -78 14 -66 0 -93 4
-102 15 -18 22 -10 213 10 225 8 5 54 10 101 10 80 0 86 1 97 24 9 21 4 29
-54 87 -35 35 -64 70 -64 78 0 23 141 161 164 161 11 0 44 -26 77 -61 49 -54
60 -61 83 -55 31 8 32 21 10 97 -43 147 -170 278 -319 327 -72 25 -182 34
-250 22z m115 -99 c11 -21 14 -330 4 -369 -6 -22 -7 -22 -188 -20 -170 3 -181
4 -184 22 -8 38 23 46 170 46 l138 0 0 163 c0 90 3 167 7 170 13 14 43 7 53
-12z"/>
<path d="M4970 6088 c0 -46 -4 -88 -8 -94 -10 -15 -100 -54 -125 -54 -13 0
-46 24 -79 57 l-58 58 -37 -38 -38 -37 58 -58 c31 -32 57 -65 57 -75 0 -9 -11
-41 -24 -71 l-25 -55 -88 -3 -88 -3 -3 -52 -3 -53 73 0 c95 0 115 -6 126 -39
6 -14 17 -43 26 -64 l17 -38 -63 -65 -62 -65 37 -36 36 -37 60 57 c33 31 68
57 79 57 24 0 114 -39 124 -54 4 -6 8 -48 8 -94 l0 -83 53 3 52 3 5 90 5 90
45 22 c70 34 87 30 152 -34 l58 -57 40 39 40 39 -60 61 c-33 33 -60 65 -60 72
0 24 50 121 65 127 9 3 50 6 91 6 l74 0 0 55 0 55 -90 0 -90 0 -25 56 c-14 31
-25 64 -25 72 0 9 26 42 57 74 l57 58 -20 27 c-40 54 -48 53 -112 -10 -32 -31
-65 -57 -74 -57 -8 0 -41 11 -72 25 l-56 25 0 90 0 90 -55 0 -55 0 0 -82z
m184 -168 c52 -27 104 -80 133 -139 13 -26 18 -59 18 -121 0 -99 -20 -145 -86
-210 -139 -134 -374 -89 -461 89 -32 65 -32 188 0 248 31 59 85 111 146 140
69 32 177 29 250 -7z"/>
<path d="M4922 5859 c-167 -83 -159 -321 13 -400 132 -61 293 36 303 182 5 70
-10 120 -51 166 -64 72 -178 95 -265 52z m278 -104 c7 -8 10 -21 7 -28 -5 -13
-249 -181 -278 -192 -8 -3 -19 -1 -26 3 -19 12 -54 103 -48 123 10 30 48 23
67 -12 l18 -30 107 75 c112 78 132 86 153 61z"/>
<path d="M2365 4461 c-62 -28 -145 -127 -207 -249 -54 -103 -128 -286 -128
-315 0 -9 24 -18 71 -27 38 -7 126 -32 195 -55 l124 -42 0 354 c0 194 -3 353
-7 353 -5 0 -26 -9 -48 -19z"/>
<path d="M4360 3902 c-90 -48 -170 -248 -170 -426 l0 -49 39 6 c22 3 72 20
111 38 85 39 160 114 184 185 20 59 21 153 2 199 -26 61 -100 82 -166 47z"/>
<path d="M6281 3898 c-74 -37 -133 -136 -167 -283 -25 -111 -25 -324 1 -414
56 -192 254 -215 350 -40 l30 54 3 303 c3 292 2 304 -18 336 -39 65 -121 83
-199 44z"/>
<path d="M7480 2734 c-107 -63 -160 -142 -146 -217 19 -99 161 -119 193 -27
13 38 18 270 6 270 -5 0 -28 -12 -53 -26z"/>
</g>
</svg>
